<svg id="Layer_1" data-name="Layer 1" xmlns="http://www.w3.org/2000/svg" viewBox="0 0 457 445"><defs><style>.cls-1{fill:#fff;}</style></defs><title>cafe</title><path class="cls-1" d="M103.83,180c-7.74.48-13.09,6-13.33,13.78-.1,3.4,0,6.83,0,10.23v86.11c0,13.87,2,26.89,10.37,38.57C109.89,341.36,123,349,138.6,349H260.95c9.07,0,18.14,0,27.2,0,16.73,0,30.77-9.69,39.29-23.82,7-11.67,8.06-23.93,8.06-37V201.88c0-2.81.12-5.66,0-8.47A13.64,13.64,0,0,0,322.09,180c-17.08-.72-34.34,0-51.43,0H103.83c-3.86,0-3.87,6,0,6H312.35c5.58,0,15.17-1.65,16.95,5.58.6,2.44.21,5.39.21,7.86v95.47c0,17.25-8.07,34.71-23.44,43.55-8.27,4.76-16.73,4.53-25.79,4.53-47.92,0-95.91.78-143.83,0-21.55-.35-37.84-21.34-39.75-41.63-.75-8-.19-16.24-.19-24.24V196.39c0-5,1.08-10,7.33-10.39C107.67,185.76,107.69,179.76,103.83,180Z"/><path class="cls-1" d="M332.14,220.49a28.39,28.39,0,0,1,22.31,10.59c5.23,6.6,6,14.1,6,22.18,0,7.56-.31,14.57-4.62,21.16A28.15,28.15,0,0,1,332.5,287c-3.86,0-3.87,6,0,6a34.23,34.23,0,0,0,27-13.36c6.08-7.91,7-16.78,7-26.38s-1.29-18.23-7.41-25.91a34.36,34.36,0,0,0-27-12.85c-3.86,0-3.87,6,0,6Z"/><path class="cls-1" d="M233.5,51.5a19.84,19.84,0,0,1,5.23.23,6.52,6.52,0,0,1,4.21,8.77c-1.81,4.29-6,4-9.78,4-7.82,0-15.67-.22-23.48,0-9.79.27-16.87,10.44-11.13,19.31,3.68,5.69,9.65,5.69,15.59,5.69h51.21c4.67,0,9.44-.27,14.11,0,13.36.78,12.68,19.58-.5,20-30.08,1-60.34,0-90.44,0-3.67,0-7.5-.29-11.15.22a18.66,18.66,0,0,0-14.88,24.21c4.89,14.41,20,12.56,32,12.56h98c3.86,0,3.87-6,0-6H185.92c-4.78,0-9.58.49-13.63-2.69-9.87-7.75-3.15-22.15,8.43-22.31,4.69-.06,9.39,0,14.08,0h76.76c3.66,0,7.74.42,11.35-.37,11.32-2.49,16.24-16.3,9.2-25.41-4.33-5.61-10.5-6.22-17-6.22H224.4c-5,0-10.28.48-15.28,0-7-.67-9.4-10.59-1.85-12.77,2.52-.73,5.72-.23,8.28-.23,7.12,0,14.32.33,21.43,0,11-.52,16.92-14,8.41-21.74-3.43-3.14-7.52-3.26-11.88-3.26-3.86,0-3.87,6,0,6Z"/><path class="cls-1" d="M46,378.5H396c4.72,0,9.67.42,14.38,0,.21,0,.44,0,.65,0,3.86,0,3.87-6,0-6H61c-4.72,0-9.67-.42-14.38,0-.21,0-.44,0-.65,0-3.86,0-3.87,6,0,6Z"/><path class="cls-1" d="M104.5,399.5h248c3.86,0,3.87-6,0-6h-248c-3.86,0-3.87,6,0,6Z"/></svg>